<svg xmlns="http://www.w3.org/2000/svg" viewBox="0 0 365.8 343.69"><defs><style>.cls-1,.cls-4,.cls-5{fill:#fff;}.cls-2,.cls-6,.cls-7{fill:none;}.cls-2,.cls-4,.cls-5,.cls-6,.cls-7{stroke:#000;}.cls-2,.cls-5{stroke-miterlimit:10;}.cls-2,.cls-4,.cls-5,.cls-7{stroke-width:0.75px;}.cls-3{fill:#59cc57;}.cls-4,.cls-6,.cls-7{stroke-linecap:round;stroke-linejoin:round;}.cls-6{stroke-width:0.5px;}</style></defs><g id="Layer_2" data-name="Layer 2"><g id="OBJECTS"><rect class="cls-1" width="365.8" height="343.69"/><path d="M181.82,94s-20.89-5.44-31.42,2.86-8.22,26.42-3.51,35.28c0,0-11.8,38.11-11.37,54s46.3,12.63,46.3,12.63,27.77-.53,31.46-2.22-5.87-55.18-11.3-64.4c0,0,5.63-12.4,4-24.47S190.61,89.66,181.82,94Z"/><path class="cls-2" d="M202.56,135.65s15.07,23.16,12.83,53.37"/><path class="cls-3" d="M258.22,251.49c-9.06-47.16-42.71-82.18-82.86-82.18s-73.79,35-82.85,82.18Z"/><path class="cls-4" d="M164.6,165.17H186l-.79-.13a8.08,8.08,0,0,0,.31-2.42l-.19-8.28a8.11,8.11,0,0,0-8.3-7.92l-5,.11a8.12,8.12,0,0,0-7.92,8.3l.2,8.28A7.78,7.78,0,0,0,164.6,165.17Z"/><path class="cls-5" d="M142.08,136.79a6.51,6.51,0,1,0,6.55-6.4A6.49,6.49,0,0,0,142.08,136.79Z"/><path class="cls-6" d="M152.18,136.86a3.57,3.57,0,0,0-3.57-3.59"/><path class="cls-5" d="M206,135.3a6.5,6.5,0,1,1-6.84-6.09A6.47,6.47,0,0,1,206,135.3Z"/><path class="cls-6" d="M195.9,135.84a3.56,3.56,0,0,1,3.4-3.75"/><rect class="cls-5" x="153.35" y="101.48" width="41.1" height="54.43" rx="17.68" transform="translate(-1.69 2.31) rotate(-0.76)"/><path class="cls-6" d="M180.05,140.31a5.27,5.27,0,0,1-10.46.14Z"/><path d="M163,128.42a2.38,2.38,0,1,1-2.34-2.42A2.39,2.39,0,0,1,163,128.42Z"/><path d="M188.15,127.83a2.38,2.38,0,1,1-2.34-2.42A2.39,2.39,0,0,1,188.15,127.83Z"/><path class="cls-7" d="M183.26,122.66a8.12,8.12,0,0,1,6,1"/><path class="cls-7" d="M162.8,123.14a8.1,8.1,0,0,0-5.89,1.25"/><polyline class="cls-7" points="176.12 133.83 171.8 133.93 173.64 124.5"/><path d="M147.57,126.33s29.27-.53,34.13-17.76c0,0,4.44,11.56,14.39,16.63,0,0,2.73-10.46-1.34-17.9s-8.52-9.68-20.08-9.17S142.92,105.49,147.57,126.33Z"/><path class="cls-7" d="M164.08,125.41s15.45-1.66,17.62-16.84"/><path class="cls-1" d="M123.51,231.29c-7.54-3.27-15.93-3.74-24.05-3.35-.21.51-.42,1-.62,1.53,7.41-.43,15-.13,22,2.39,7.44,2.67,13.32,8.08,18.24,14.11,1.46,1.79,2.86,3.64,4.21,5.52h1.82q-1.84-2.6-3.81-5.12C136.53,240.2,130.8,234.45,123.51,231.29Z"/><path class="cls-1" d="M174.05,171.05c.29,5.1,1.19,10.3,3.64,14.85a19.7,19.7,0,0,0,9.19,8.8c4.38,1.9,9.2,1.47,13.55-.3,6.19-2.52,11.26-7,16-11.82-.42-.29-.86-.57-1.29-.86a73.45,73.45,0,0,1-8,7.07c-4,3-8.77,5.59-13.9,5.68a15.31,15.31,0,0,1-11.79-5.75c-4.5-5.25-5.88-12.38-6.06-19.41h0c-.46,0-.91,0-1.37,0C174,169.92,174,170.48,174.05,171.05Z"/><path class="cls-1" d="M206.12,236.82c5.26-2.41,11.49-3.72,16.89-1a13.5,13.5,0,0,1,1.84,1.12c-.25.3-.52.59-.76.9-1.6,2.06-2.65,4.8-1.24,7.24,1.14,2,3.71,3.16,5.7,1.6,1.7-1.34,1.78-3.92,1.17-5.83a9.57,9.57,0,0,0-2.66-4.1,50.46,50.46,0,0,1,4.66-4.12,57.56,57.56,0,0,1,13.89-8.06c1.2-.48,2.42-.91,3.64-1.32-.21-.46-.42-.92-.64-1.38-.9.31-1.8.63-2.68,1a59.5,59.5,0,0,0-15.27,8.73,49.93,49.93,0,0,0-4.78,4.22,16.88,16.88,0,0,0-8.94-3c-6.65-.25-13,3.09-18.48,6.51a78,78,0,0,0-13.89,11.07c-.37.36-.72.75-1.08,1.12h1.95A70.26,70.26,0,0,1,206.12,236.82ZM226,237.87a8.16,8.16,0,0,1,2.28,3.37c.58,1.79.09,5.83-2.78,4.43-3.27-1.6-1.43-5.58.27-7.55A2.73,2.73,0,0,0,226,237.87Z"/><path class="cls-1" d="M112.83,203.81a44.66,44.66,0,0,0,12.73,5.83,30.4,30.4,0,0,0,22.19-2.22c.56-.3,1.11-.63,1.65-1,3.44,13.13,17.51,22.26,31,21.45,8.57-.52,16.27-4.81,23-9.85,7.32-5.48,13.93-11.83,21.27-17.29,2.24-1.67,4.55-3.26,6.91-4.74q-.52-.59-1.05-1.14a151.18,151.18,0,0,0-15.75,11.86c-6.3,5.3-12.45,10.95-19.68,15-6.89,3.84-14.69,5.78-22.51,4.05A30,30,0,0,1,154.62,214a25.63,25.63,0,0,1-3.89-8.48,23.86,23.86,0,0,0,5-4.82c2-2.65,4.6-7,3.34-10.47a4,4,0,0,0-3.64-2.75c-1.81,0-3.05,1.63-4,3a17.89,17.89,0,0,0-2.84,10.73,24.53,24.53,0,0,0,.43,3.67,27.6,27.6,0,0,1-17.49,4.29,39.6,39.6,0,0,1-17.83-6.59ZM151.75,193c.72-1.44,2.33-4.54,4.33-3.86,2.53.85,1.81,4.16,1.12,6a20.21,20.21,0,0,1-6.06,8.26c-.25.2-.5.4-.76.59A17.65,17.65,0,0,1,151.75,193Z"/><rect class="cls-4" x="157.46" y="161.68" width="35.52" height="15.09" rx="4.13"/><line class="cls-7" x1="92.51" y1="251.49" x2="258.22" y2="251.49"/><polyline class="cls-7" points="122.05 222.63 122.05 251.49 228.68 251.49 228.68 222.63"/></g></g></svg>