<svg xmlns="http://www.w3.org/2000/svg" viewBox="0 0 365.8 343.69"><defs><style>.cls-1,.cls-5{fill:#fff;}.cls-2,.cls-4{fill:#f6cb4e;}.cls-3,.cls-6{fill:none;stroke-linecap:round;stroke-linejoin:round;}.cls-3,.cls-4,.cls-5,.cls-6{stroke:#000;}.cls-3,.cls-4,.cls-5{stroke-width:0.75px;}.cls-4,.cls-5{stroke-miterlimit:10;}.cls-6{stroke-width:0.5px;}</style></defs><g id="Layer_2" data-name="Layer 2"><g id="OBJECTS"><rect class="cls-1" width="365.8" height="343.69"/><path class="cls-1" d="M268.48,253c-9.06-47.16-42.72-82.18-82.86-82.18s-73.8,35-82.86,82.18Z"/><path class="cls-2" d="M137.25,189.87H234c-1.29-1.12-2.59-2.22-3.94-3.25H141.19C139.85,187.65,138.54,188.75,137.25,189.87Z"/><path class="cls-2" d="M126.79,200.61H244.45q-1.38-1.67-2.82-3.26h-112Q128.17,198.94,126.79,200.61Z"/><path class="cls-2" d="M153.83,178.59h63.58a73.06,73.06,0,0,0-7.43-3.26H161.26A74,74,0,0,0,153.83,178.59Z"/><path class="cls-2" d="M108.05,233.84c-.39,1.08-.77,2.16-1.14,3.26H264.33c-.37-1.1-.74-2.18-1.13-3.26Z"/><path class="cls-2" d="M113.43,221.24c-.54,1.08-1.07,2.16-1.57,3.26H259.38c-.5-1.1-1-2.18-1.57-3.26Z"/><path class="cls-2" d="M120.32,209.3c-.71,1.07-1.4,2.15-2.08,3.26H253c-.68-1.11-1.37-2.19-2.08-3.26Z"/><path class="cls-2" d="M267,246.43H104.23c-.27,1.08-.52,2.17-.76,3.26H267.78C267.54,248.6,267.28,247.51,267,246.43Z"/><polyline class="cls-3" points="132.31 224.17 132.31 253.04 238.93 253.04 238.93 224.17"/><path class="cls-1" d="M119.77,207.12a1,1,0,0,0,0-2,1,1,0,0,0,0,2Z"/><path class="cls-3" d="M268.48,253c-9.06-47.16-42.72-82.18-82.86-82.18s-73.8,35-82.86,82.18Z"/><ellipse class="cls-4" cx="185.08" cy="173.18" rx="15.39" ry="7.74"/><path d="M209.73,138.75c.12,10.56-9.67,19.34-21.75,19.52l-7.14.1c-12.09.18-22.08-8.32-22.21-18.87l-.24-20.72c-.12-10.55,9.66-19.34,21.75-19.51l7.14-.1c12.09-.18,22.08,8.31,22.2,18.87Z"/><rect class="cls-5" x="174.43" y="152.01" width="21.23" height="24.51" rx="8.11" transform="translate(-3.78 4.36) rotate(-1.34)"/><path class="cls-5" d="M152.34,142.33a6.51,6.51,0,1,0,6.55-6.4A6.47,6.47,0,0,0,152.34,142.33Z"/><path class="cls-6" d="M162.44,142.41a3.6,3.6,0,0,0-3.57-3.6"/><path class="cls-5" d="M216.24,140.84a6.5,6.5,0,1,1-6.84-6.09A6.47,6.47,0,0,1,216.24,140.84Z"/><path class="cls-6" d="M206.15,141.39a3.59,3.59,0,0,1,3.4-3.76"/><rect class="cls-5" x="163.61" y="107.02" width="41.1" height="54.43" rx="17.68" transform="translate(-1.76 2.45) rotate(-0.76)"/><path class="cls-3" d="M190.31,145.85a5.27,5.27,0,0,1-10.47.14"/><path d="M173.21,134a2.38,2.38,0,1,1-2.33-2.43A2.38,2.38,0,0,1,173.21,134Z"/><path d="M198.4,133.38a2.38,2.38,0,1,1-2.33-2.43A2.37,2.37,0,0,1,198.4,133.38Z"/><path d="M199.46,130.18a1,1,0,0,1-.57-.18,7.11,7.11,0,0,0-5.13-.82,1,1,0,0,1-1.21-.74,1,1,0,0,1,.73-1.2,9,9,0,0,1,6.75,1.12,1,1,0,0,1,.26,1.39A1,1,0,0,1,199.46,130.18Z"/><path d="M167.17,130.93a1,1,0,0,1-.61-1.79,9.09,9.09,0,0,1,6.69-1.44,1,1,0,0,1-.38,2h0a7.09,7.09,0,0,0-5.09,1.05A1,1,0,0,1,167.17,130.93Z"/><polyline class="cls-3" points="186.37 139.38 182.06 139.48 183.9 130.04"/><path d="M205.89,110.25c-.23-.15-10-5.62-20.22-5.62-11.2,0-23,5.46-23.23,5.62-.8.48-4,10.55,1.07,16.77,0,0,3.2-10.42,9.7-12.21,5.22-1.44,6.44,1.9,10.95,1.9s5.74-3.34,11-1.9c6.51,1.79,9.71,12.21,9.71,12.21C209.87,120.8,206.69,110.73,205.89,110.25Z"/></g></g></svg>