<svg xmlns="http://www.w3.org/2000/svg" viewBox="0 0 365.8 343.69"><defs><style>.cls-1,.cls-4,.cls-5{fill:#fff;}.cls-2{fill:#f089d5;}.cls-3,.cls-6,.cls-7,.cls-8{fill:none;}.cls-3,.cls-4,.cls-5,.cls-6,.cls-7,.cls-8{stroke:#000;}.cls-3,.cls-4,.cls-6,.cls-7{stroke-linecap:round;stroke-linejoin:round;}.cls-3,.cls-4,.cls-5,.cls-8{stroke-width:0.75px;}.cls-5,.cls-8{stroke-miterlimit:10;}.cls-6{stroke-width:0.5px;}</style></defs><g id="Layer_2" data-name="Layer 2"><g id="OBJECTS"><rect class="cls-1" width="365.8" height="343.69"/><path class="cls-1" d="M258.05,254.12C249,207,215.33,171.94,175.19,171.94s-73.8,35-82.86,82.18Z"/><path class="cls-2" d="M187.88,201.39a12.72,12.72,0,0,0-3.18-3.24,25.66,25.66,0,0,0-4.61-2.12,5.24,5.24,0,0,1-3.22-3.71c-.45-1.66-.56-3.4-1-5.06-1.91-7.4-10.42-10-17-7.17-3.51,1.54-6,4.24-8.13,7.35a14.93,14.93,0,0,1-3.71,4.24,16.39,16.39,0,0,1-4.49,1.81c-2.72.8-5.56,1.69-7.42,3.88a9.61,9.61,0,0,0-1.8,2.76,12.84,12.84,0,0,0,.06,9.94,16.29,16.29,0,0,0,3.15,5,24.52,24.52,0,0,1,3.36,3.91c1.86,3.25-1.58,6.67-1.6,10,0,3.83,3.22,6.83,6.6,8.05,3.61,1.31,7.12.4,10.38-1.37a16.47,16.47,0,0,1,4.94-2.2c1.95-.33,3.57.75,5.19,1.66a13.16,13.16,0,0,0,10.74,1.25,12.63,12.63,0,0,0,7.61-7.24,13.33,13.33,0,0,0,.89-5.59,7.19,7.19,0,0,1,.32-3.13,9.46,9.46,0,0,1,1.61-2.27,13.36,13.36,0,0,0,3.65-8.34A14,14,0,0,0,187.88,201.39Z"/><path class="cls-2" d="M211.93,182.44c-.53.79-1,1.59-1.5,2.42-2.89,5.23-4.6,11.71-2.75,17.59a14.08,14.08,0,0,0,11,10,15.71,15.71,0,0,1,4.31.86,5.37,5.37,0,0,1,2.4,2.78c1.07,2.26,1.75,4.65,3.68,6.38,4.37,3.9,10.61,3.24,15.63,1.13.9-.38,1.79-.8,2.67-1.23C238.83,205.16,226.53,191.26,211.93,182.44Z"/><path class="cls-2" d="M239.46,254.12c-.14-.33-.26-.67-.37-1-1-3.28.3-6.76-.12-10.11-.76-6.19-5.27-11.53-11.68-12.1a11.07,11.07,0,0,0-8,2.47c-2.11,1.72-3.61,4.27-6,5.6-3,1.66-6.78-.13-10-.36a14.86,14.86,0,0,0-8.11,1.91,17.9,17.9,0,0,0-8.88,13.61Z"/><path class="cls-2" d="M132.74,254.12a10.27,10.27,0,0,0,1.61-2.38,11.67,11.67,0,0,0,.12-9.15,15.8,15.8,0,0,0-5.87-7.11,24,24,0,0,0-4.23-2.3c-1.55-.66-3.21-1.08-4.74-1.78-3.83-1.73-3.32-5.81-2.9-9.34.47-3.91.13-7.48-2.51-10.56a10.8,10.8,0,0,0-3.3-2.62,119.17,119.17,0,0,0-18.59,45.24Z"/><path class="cls-3" d="M258.05,254.12C249,207,215.33,171.94,175.19,171.94s-73.8,35-82.86,82.18Z"/><polyline class="cls-3" points="121.88 225.25 121.88 254.12 228.5 254.12 228.5 225.25"/><path class="cls-3" d="M145.2,183.81a51.47,51.47,0,0,0,60,0"/><path d="M94,249.46a6.4,6.4,0,0,0,3.53-.54,14.39,14.39,0,0,0,1.62-1c.3-.19.57-.17.35-.34.21.16.35.59.5.81a5.28,5.28,0,0,0,6.52,1.59A5.07,5.07,0,0,0,109,247c.49-1.31.58-2.69,1.48-3.81a7.42,7.42,0,0,0,2.08-4.08,6,6,0,0,0-1.24-4.22A6.83,6.83,0,0,0,108,232.6c-1-.31-3,0-3.58-.93a8.28,8.28,0,0,1-.65-1.89,5.2,5.2,0,0,0-1.14-2,4.22,4.22,0,0,0-1.72-1,124.06,124.06,0,0,0-7.53,22.52C93.56,249.38,93.77,249.43,94,249.46Z"/><path d="M172.28,205.22a10.77,10.77,0,0,0-2-.88,7.88,7.88,0,0,1-2.3-.76c-1.07-.79-1.46-2.31-2.5-3.18-2.56-2.15-6.47-.77-8.76,1.1a7.84,7.84,0,0,0-2.67,4,7.44,7.44,0,0,0-.15,2.66,4.28,4.28,0,0,1,0,1.35,6.36,6.36,0,0,0-2.88,6,8.56,8.56,0,0,0,5.52,6.75,6.52,6.52,0,0,0,4.85.23c.4-.16,1.07-.76,1.46-.75s1.26.83,1.7,1.11c2.95,1.85,6.42-.24,7.15-3.41a10.42,10.42,0,0,0,.18-1.23,2.88,2.88,0,0,1,.06-.93c.26-.47,1.16-.65,1.6-1a5.74,5.74,0,0,0,2.33-3.49A7.11,7.11,0,0,0,172.28,205.22Z"/><path d="M233.52,254.12a6.7,6.7,0,0,0-4.39-4.34,6,6,0,0,0-2.24-.26,11.55,11.55,0,0,0-1.31.22c-.44.08-.35.16-.59-.12-.38-.44-.41-1.49-.6-2a5,5,0,0,0-1.19-2c-2.76-2.67-6.78-1-9.08,1.36-1.09,1.1-2.25,3.14-4,3a18.48,18.48,0,0,0-5-.29,6.64,6.64,0,0,0-4.36,2.49,5.72,5.72,0,0,0-.92,2Z"/><path d="M225.42,200.77c.89.34,1.62.66,1.72,1.69.16,1.57-.16,3,.7,4.41a5.41,5.41,0,0,0,3,2.31,4.83,4.83,0,0,0,1.89.17c.73-.07,1.15-.36,1.77.12a7,7,0,0,0,3,1.81,5.78,5.78,0,0,0,3.3-.45,96.57,96.57,0,0,0-18.14-20.69,8.59,8.59,0,0,0-1.91,6.09C221,199,223.16,199.88,225.42,200.77Z"/><path class="cls-4" d="M186.2,172.84l-.29-12.26a9.55,9.55,0,0,0-9.78-9.33l-2.11.05a9.55,9.55,0,0,0-9.33,9.77l.27,11.65a70.56,70.56,0,0,0-19.76,6.09,51.47,51.47,0,0,0,60,0A71.07,71.07,0,0,0,186.2,172.84Z"/><path class="cls-4" d="M208,131.86a4,4,0,0,0-2-2.52,4,4,0,0,0,.06-6.11,4,4,0,0,0,2-4.51,4,4,0,0,0-2.07-2.55,4,4,0,0,0,1.37-4.14,4,4,0,0,0-2.37-2.69,4,4,0,0,0-3.16-5.79,3.21,3.21,0,0,0,.21-.3,4,4,0,0,0-4.91-5.75,4,4,0,0,0-6-3.72,4,4,0,0,0-6.9-2,4,4,0,0,0-6.86-.45,4.06,4.06,0,0,0-1.87-1.48,4,4,0,0,0-5,2,4,4,0,0,0-7.32.36c0,.11-.06.21-.09.31a4,4,0,0,0-6.66,3c0,.06,0,.12,0,.18a4.24,4.24,0,0,0-1.13-.18,4,4,0,0,0-4,4,4,4,0,0,0-3.71,5.57,4,4,0,0,0-2,7,4,4,0,0,0-1.19,6.42,4,4,0,0,0,.06,7.5,4,4,0,0,0,.54,6.16,4,4,0,0,0,.86,7.05,4.07,4.07,0,0,0-.63,2.15,4,4,0,0,0,4,4,4.89,4.89,0,0,0,.55,0,4,4,0,0,0,3.47,6,4,4,0,0,0,1.4-.26,4.07,4.07,0,0,0-.06.61,4,4,0,0,0,7.36,2.25,23.4,23.4,0,0,0,7.24,1.15h11.65A23.26,23.26,0,0,0,191,152.72a4,4,0,0,0,7-3,4,4,0,0,0,2.49.16,4,4,0,0,0,2.1-6.41,4.15,4.15,0,0,0,.92-.12,4,4,0,0,0,2.88-4.91,4,4,0,0,0-1-1.8A4,4,0,0,0,208,131.86Z"/><path class="cls-5" d="M142,142.24a6.78,6.78,0,1,0,6.86-6.65A6.76,6.76,0,0,0,142,142.24Z"/><path class="cls-6" d="M152.51,142.36a3.73,3.73,0,0,0-3.71-3.76"/><path class="cls-5" d="M208.65,141a6.79,6.79,0,1,1-7.11-6.39A6.76,6.76,0,0,1,208.65,141Z"/><path class="cls-6" d="M198.12,141.53a3.74,3.74,0,0,1,3.57-3.9"/><rect class="cls-5" x="153.78" y="105.57" width="42.87" height="56.78" rx="18.44" transform="translate(-1.09 1.43) rotate(-0.47)"/><path class="cls-6" d="M181.57,146.11a5.5,5.5,0,0,1-10.92.09"/><path d="M163.8,133.62a2.49,2.49,0,1,1-2.43-2.55A2.49,2.49,0,0,1,163.8,133.62Z"/><path d="M190.08,133.14a2.49,2.49,0,1,1-2.43-2.55A2.49,2.49,0,0,1,190.08,133.14Z"/><path class="cls-7" d="M185,127.72a8.46,8.46,0,0,1,6.2,1"/><path class="cls-7" d="M163.66,128.11a8.46,8.46,0,0,0-6.15,1.26"/><polyline class="cls-3" points="177.5 139.33 172.99 139.41 174.97 129.58"/><path class="cls-1" d="M199.56,121.74a3.74,3.74,0,0,0,.34-1.56,3.86,3.86,0,0,0-1.66-3.17c0-1.22-.06-2.48-.18-3.61-.4-3.8-5.39-6-9.45-8.35S177.07,102.47,169,103s-16.46,9-16.46,9l-1.26,7.16a3.84,3.84,0,0,0-1.45,6.36,3.85,3.85,0,1,0,4.73.54,3.78,3.78,0,0,0,1.59-4.6,3.78,3.78,0,0,0,1.39.27,3.85,3.85,0,0,0,3.84-3.7,3.82,3.82,0,0,0,6.25-2.46,3.82,3.82,0,0,0,6.47-.6,3.83,3.83,0,0,0,6.6.44,3.85,3.85,0,0,0,3.59,2.46,3.8,3.8,0,0,0,2.08-.62,3.86,3.86,0,0,0,3.74,3,3.82,3.82,0,0,0,2.18-.69A3.78,3.78,0,0,0,195.6,124a3.91,3.91,0,0,0-.34,1.57,3.86,3.86,0,1,0,4.3-3.81Zm-45.78-2.61.1-.06a.38.38,0,0,0,0,.1Z"/><path class="cls-3" d="M151.81,132.61a3.85,3.85,0,0,0,2.72-6.58,3.78,3.78,0,0,0,1.59-4.6,3.78,3.78,0,0,0,1.39.27,3.85,3.85,0,0,0,3.84-3.7,3.82,3.82,0,0,0,6.25-2.46,3.82,3.82,0,0,0,6.47-.6,3.83,3.83,0,0,0,6.6.44,3.85,3.85,0,0,0,3.59,2.46,3.8,3.8,0,0,0,2.08-.62,3.86,3.86,0,0,0,3.74,3,3.82,3.82,0,0,0,2.18-.69A3.78,3.78,0,0,0,195.6,124a3.91,3.91,0,0,0-.34,1.57,3.85,3.85,0,0,0,3.85,3.85"/><path d="M198.26,112.75a3.62,3.62,0,0,1,1.38,3c0,.32.48.32.5,0a4.08,4.08,0,0,0-1.52-3.34.25.25,0,0,0-.36,0,.26.26,0,0,0,0,.35Z"/><path d="M186.3,96.15a3.61,3.61,0,0,1,2.36,1.4.26.26,0,0,0,.34.09.25.25,0,0,0,.09-.34,4.06,4.06,0,0,0-2.66-1.63.26.26,0,0,0-.31.17.25.25,0,0,0,.18.31Z"/><path d="M189.07,107.51a3.32,3.32,0,0,1,3,2.83.27.27,0,0,0,.25.25.24.24,0,0,0,.25-.25,3.83,3.83,0,0,0-3.48-3.33c-.32,0-.32.48,0,.5Z"/><path d="M157.38,110.6a3.25,3.25,0,0,1,1-2.55,3.48,3.48,0,0,1,2.73-1c.31,0,.45-.43.13-.48a4,4,0,0,0-3.17,1,3.74,3.74,0,0,0-1.18,2.95c0,.32.52.32.5,0Z"/><path d="M164.34,97.66a1.56,1.56,0,0,1,.67-1.19,2.66,2.66,0,0,1,1.58-.39c.32,0,.32-.49,0-.5a3,3,0,0,0-1.89.51,2,2,0,0,0-.86,1.57c0,.32.49.32.5,0Z"/><path d="M173.91,102.21a2.29,2.29,0,0,1,3.64-.24c.21.23.57-.12.35-.36a2.83,2.83,0,0,0-2.32-.92,2.9,2.9,0,0,0-2.1,1.27c-.18.26.25.51.43.25Z"/><path d="M148.21,122.22a3.3,3.3,0,0,1,.67-3.44c.22-.24-.13-.59-.36-.36a3.85,3.85,0,0,0-.79,3.94c.11.29.59.16.48-.14Z"/><path d="M204.9,145.67a1.62,1.62,0,1,1-1.62-1.62A1.61,1.61,0,0,1,204.9,145.67Z"/><line class="cls-8" x1="203.28" y1="145.97" x2="203.28" y2="158.43"/><rect x="197.83" y="155.86" width="10.9" height="10.9" transform="translate(173.6 -96.5) rotate(45)"/><rect class="cls-1" x="200.88" y="158.91" width="4.81" height="4.81" transform="translate(173.6 -96.5) rotate(45)"/></g></g></svg>