<svg xmlns="http://www.w3.org/2000/svg" viewBox="0 0 365.8 343.69"><defs><style>.cls-1,.cls-4{fill:#fff;}.cls-2{fill:#f6cb4e;}.cls-3,.cls-5,.cls-6{fill:none;}.cls-3,.cls-4,.cls-5{stroke:#000;}.cls-3,.cls-5{stroke-linecap:round;stroke-linejoin:round;}.cls-3,.cls-4,.cls-6{stroke-width:0.75px;}.cls-4,.cls-6{stroke-miterlimit:10;}.cls-5{stroke-width:0.5px;}.cls-6{stroke:#5a87fe;}.cls-7{fill:#59cc57;}</style></defs><g id="Layer_2" data-name="Layer 2"><g id="OBJECTS"><rect class="cls-1" width="365.8" height="343.69"/><path class="cls-1" d="M213.14,165.85l-6.67-11.11c-.6-1.47-3.4-2.21-5-2.14l-22.37,0c-1.59-.07-4.45,2.46-5.05,3.93l-6.33,9.34c-29.68,10.33-52.87,40.39-60.15,78.3H273.29C266,206.23,242.81,176.18,213.14,165.85Z"/><path class="cls-2" d="M214.14,166.22a64.34,64.34,0,0,1-47.78.14c-29,10.76-51.61,40.46-58.78,77.79H273.29C266.09,206.66,243.33,176.88,214.14,166.22Z"/><polyline class="cls-3" points="137.12 215.28 137.12 244.15 243.75 244.15 243.75 215.28"/><path class="cls-3" d="M190.09,174.89c10.93,0,20.91-2.6,28.54-6.87q-2.72-1.2-5.49-2.17l-6.67-11.11c-1.52-2.28-5.47-2.35-7.06-2.28H180.57a6.61,6.61,0,0,0-5.86,3.1l-7,10.29c-2,.69-3.94,1.48-5.86,2.34C169.45,172.36,179.31,174.89,190.09,174.89Z"/><path class="cls-3" d="M214.14,166.22a64.34,64.34,0,0,1-47.78.14c-29,10.76-51.61,40.46-58.78,77.79H273.29C266.09,206.66,243.33,176.88,214.14,166.22Z"/><path class="cls-3" d="M213.14,165.85l-6.67-11.11c-1.52-2.28-5.47-2.35-7.06-2.28H180.57a6.61,6.61,0,0,0-5.86,3.1l-7,10.29c-29.68,10.33-52.87,40.39-60.15,78.3H273.29C266,206.23,242.81,176.18,213.14,165.85Z"/><rect class="cls-4" x="179.25" y="142.13" width="21.23" height="24.51" rx="8.11" transform="translate(-3.55 4.47) rotate(-1.34)"/><path d="M186.89,149.32s-11-.54-16.61-5-12.54-20.92-8.8-34S185.65,96.23,194.8,97s23.55,8.7,23.55,8.7.85,38.06-15.77,42.36S186.89,149.32,186.89,149.32Z"/><path class="cls-4" d="M156.16,129.83a6.78,6.78,0,1,0,7.13-6.36A6.76,6.76,0,0,0,156.16,129.83Z"/><path class="cls-5" d="M166.68,130.38a3.73,3.73,0,0,0-3.55-3.91"/><path class="cls-4" d="M222.79,131.31a6.78,6.78,0,1,1-6.84-6.67A6.76,6.76,0,0,1,222.79,131.31Z"/><path class="cls-5" d="M212.26,131.39a3.73,3.73,0,0,1,3.72-3.75"/><rect class="cls-4" x="161.31" y="101.48" width="56.75" height="42.85" rx="18.43" transform="translate(60.73 308.53) rotate(-88.15)"/><path class="cls-5" d="M195.54,135.3a5.49,5.49,0,0,1-10.9-.36Z"/><path d="M178.3,122.1a2.48,2.48,0,1,1-2.32-2.63A2.48,2.48,0,0,1,178.3,122.1Z"/><path d="M204.56,122.69a2.48,2.48,0,1,1-2.31-2.64A2.47,2.47,0,0,1,204.56,122.69Z"/><path class="cls-3" d="M199.72,117.07a8.44,8.44,0,0,1,6.15,1.29"/><path class="cls-3" d="M178.39,116.6a8.46,8.46,0,0,0-6.19,1"/><polyline class="cls-3" points="191.75 128.37 187.25 128.26 189.62 118.52"/><path d="M222.44,102.29c-1.36-10.89-10.68-19.62-19.64-20-5.5-.24-5.86,1.58-6.05,1.09-.44-1.15-1.21-2.37-6.66-3.3-6.61-1.14-25.82-.22-31.61,13.87s1.94,29.36,1.94,29.36l7.37.41L169,116.8a92.81,92.81,0,0,0,16.08-9.54c-3.41,3-8.62,7.54-8.62,7.54s3.75,0,9.69-4.15c1.6-1.12,6.27-4.64,6.27-4.64a47,47,0,0,1-5.18,6.19c-2.31,2.22-5.13,3.72-4.58,3.62,7.18-1.36,14.73-4.45,15.78-11.42.07-.47-1.67,10.88,7.76,14.34,0,0-2.07-5.49-.67-9.62,0,0-.29,8.32,5.81,10.74l.61,6.61,4.71-2.87S224.28,117,222.44,102.29Z"/><path class="cls-3" d="M196.75,83.37s6.27-5.79,18.31-.47"/><path class="cls-6" d="M185.62,120a10.21,10.21,0,1,1-10.15-10.72A10.44,10.44,0,0,1,185.62,120Z"/><path class="cls-6" d="M215.06,120.09a10.21,10.21,0,1,1-10.15-10.71A10.44,10.44,0,0,1,215.06,120.09Z"/><path class="cls-6" d="M185,123.13a11.12,11.12,0,0,1,4.73-1.11,12.78,12.78,0,0,1,5.38,1.28"/><path class="cls-1" d="M204.62,157.82c-2.77,2.59-7.78,4.31-13.5,4.31-6.31,0-11.75-2.09-14.28-5.12l-4.09,11,9.06,9,9.31-9.12L203,177l5.26-8.93Z"/><polygon class="cls-7" points="181.81 177 181.85 176.96 181.78 176.91 181.81 177"/><path class="cls-3" d="M204.62,157.82c-2.77,2.59-7.78,4.31-13.5,4.31-6.31,0-11.75-2.09-14.28-5.12"/><polyline class="cls-3" points="208.69 167.88 202.97 177 191.12 167.88 181.81 177 172.75 168.04"/></g></g></svg>