<svg xmlns="http://www.w3.org/2000/svg" viewBox="0 0 365.8 343.69"><defs><style>.cls-1,.cls-5{fill:#fff;}.cls-2{fill:#f089d5;}.cls-3,.cls-6,.cls-7{fill:none;}.cls-3,.cls-5,.cls-6,.cls-7{stroke:#000;}.cls-3,.cls-7{stroke-linecap:round;stroke-linejoin:round;}.cls-3,.cls-5,.cls-6{stroke-width:0.75px;}.cls-4{fill:#59cc57;}.cls-5,.cls-6{stroke-miterlimit:10;}.cls-7{stroke-width:0.5px;}</style></defs><g id="Layer_2" data-name="Layer 2"><g id="OBJECTS"><rect class="cls-1" width="365.8" height="343.69"/><path class="cls-1" d="M193.74,170a6.3,6.3,0,0,0-6.3-6.17H158.71a6.3,6.3,0,0,0-6.3,6.17c-30.65,9.64-54.74,40.19-62.19,79H255.93C248.48,210.18,224.39,179.63,193.74,170Z"/><path class="cls-2" d="M199.35,249h56.58c-7-36.39-28.63-65.53-56.58-76.95Z"/><path class="cls-2" d="M147.1,171.9C119,183.24,97.23,212.45,90.22,249H147.1Z"/><polyline class="cls-3" points="119.76 220.1 119.76 248.97 226.38 248.97 226.38 220.1"/><line class="cls-3" x1="90.22" y1="248.97" x2="255.93" y2="248.97"/><line class="cls-3" x1="147.1" y1="200.9" x2="147.1" y2="248.97"/><line class="cls-3" x1="199.35" y1="200.46" x2="199.35" y2="248.97"/><path class="cls-4" d="M122.3,187.47s26.08,21.31,55.46,16.93,47.12-10.54,48.62-14-12.89-15.74-12.89-15.74-10.62-7.82-16.05-8.83l-.82-6.62s5.19-6.49,7.38-13.19,1.47-27.53-.71-33.88-9.95-11.9-16.37-16.27-20.77-6.15-31.84,1.64-14.76,17.94-14.35,26.55a197.17,197.17,0,0,0,2.15,22.78c1.13,6.83,7.83,13,7.83,13l.54,4.62s-5.6,5-6,6.82C145.24,171.32,124.79,179.13,122.3,187.47Z"/><path class="cls-3" d="M157.1,161s17.89,5.2,32.65-1.13"/><path class="cls-3" d="M152.17,166.63s22.09,8.37,42.14-3"/><path class="cls-3" d="M152.17,174.21s20.39,8.17,41.1-3.7"/><path class="cls-3" d="M148.21,118.87s1.56-12,7.7-18.35"/><path class="cls-3" d="M188.07,102.52s5.31,8.89,5,17.55"/><path class="cls-3" d="M142.88,185.15s22.83,8.61,41.48,4.51"/><path class="cls-3" d="M135.5,186.38s43.07,26.56,75.7-7.65"/><rect class="cls-5" x="145.63" y="111.67" width="54.18" height="40.91" rx="17.6" transform="translate(38.86 303.51) rotate(-89.42)"/><rect class="cls-6" x="145.63" y="111.67" width="54.18" height="40.91" rx="17.6" transform="translate(38.86 303.51) rotate(-89.42)"/><path class="cls-7" d="M178.57,143.83a5.25,5.25,0,0,1-10.42-.1"/><path d="M161.84,131.6a2.37,2.37,0,1,1-2.27-2.46A2.37,2.37,0,0,1,161.84,131.6Z"/><path d="M186.92,131.6a2.37,2.37,0,1,1-2.27-2.46A2.37,2.37,0,0,1,186.92,131.6Z"/><path class="cls-3" d="M182.18,126.35a8.06,8.06,0,0,1,5.89,1.1"/><path class="cls-3" d="M161.81,126.35a8.08,8.08,0,0,0-5.9,1.1"/><polyline class="cls-3" points="174.81 137.3 170.51 137.29 172.56 127.95"/><path class="cls-5" d="M175.85,105.07l-5.71-.06a17.65,17.65,0,0,0-17.78,17.42v.2c7.07-5.64,23-14.41,40.9,1.47v-1.26A17.65,17.65,0,0,0,175.85,105.07Z"/><path class="cls-3" d="M158.81,113.52s10.33-5.63,25.55-.58"/></g></g></svg>