<svg xmlns="http://www.w3.org/2000/svg" viewBox="0 0 365.8 343.69"><defs><style>.cls-1,.cls-4,.cls-6{fill:#fff;}.cls-2{fill:#f089d5;}.cls-3,.cls-5,.cls-7{fill:none;}.cls-3,.cls-4,.cls-5,.cls-6,.cls-7{stroke:#000;}.cls-3,.cls-5,.cls-6,.cls-7{stroke-linecap:round;stroke-linejoin:round;}.cls-3,.cls-4,.cls-6{stroke-width:0.75px;}.cls-4{stroke-miterlimit:10;}.cls-5{stroke-width:0.5px;}</style></defs><g id="Layer_2" data-name="Layer 2"><g id="OBJECTS"><rect class="cls-1" width="365.8" height="343.69"/><path class="cls-1" d="M267.16,255.35c-9.06-47.16-42.71-82.18-82.85-82.18s-73.8,35-82.86,82.18Z"/><rect class="cls-2" x="160.67" y="202.76" width="7.8" height="7.8"/><rect class="cls-2" x="138.12" y="225.4" width="7.8" height="7.8"/><rect class="cls-2" x="181.19" y="225.1" width="7.8" height="7.8"/><rect class="cls-2" x="160.67" y="239.75" width="7.8" height="7.8"/><rect class="cls-2" x="209.17" y="237.01" width="7.8" height="7.8"/><rect class="cls-2" x="226.82" y="217.35" width="7.8" height="7.8"/><rect class="cls-2" x="242.94" y="235.83" width="7.8" height="7.8"/><rect class="cls-2" x="118.1" y="239.73" width="7.8" height="7.8"/><rect class="cls-2" x="129.15" y="202.15" width="7.8" height="7.8"/><rect class="cls-2" x="205.27" y="204.81" width="7.8" height="7.8"/><rect class="cls-2" x="185.09" y="191.78" width="7.8" height="7.8"/><path class="cls-2" d="M153.72,182.26H150c-1.37.77-2.73,1.56-4.07,2.41v5.39h7.8Z"/><path class="cls-2" d="M118.1,226v-7.8H115q-2.16,3.78-4,7.8Z"/><path class="cls-2" d="M106.31,251.45h-4c-.29,1.29-.57,2.59-.82,3.9h4.86Z"/><rect class="cls-2" x="136.95" y="252.74" width="7.8" height="2.61"/><rect class="cls-2" x="193.65" y="249.98" width="7.8" height="5.36"/><rect class="cls-2" x="226.82" y="248.84" width="7.8" height="6.51"/><rect class="cls-2" x="254.64" y="249.98" width="7.8" height="5.36"/><path class="cls-2" d="M252.42,216.09h-1.68v7.8h5.92Q254.68,219.86,252.42,216.09Z"/><path class="cls-2" d="M241.52,201c-1.3-1.48-2.62-2.93-4-4.31h-3.81v7.8h7.8Z"/><path class="cls-2" d="M220.16,183.14c-1.38-.81-2.77-1.58-4.19-2.3h-3.61v7.8h7.8Z"/><polyline class="cls-3" points="131 226.48 131 255.35 237.62 255.35 237.62 226.48"/><path class="cls-3" d="M267.16,255.35c-9.06-47.16-42.71-82.18-82.85-82.18s-73.8,35-82.86,82.18Z"/><path class="cls-4" d="M210,143.47c.14,11.38-9.63,20.83-21.71,21l-7.14.1c-12.09.16-22.09-9-22.23-20.4l-.29-22.33c-.14-11.38,9.63-20.83,21.72-21l7.13-.1c12.09-.17,22.09,9,22.24,20.4Z"/><ellipse class="cls-2" cx="185.09" cy="177.42" rx="18.02" ry="8.95"/><rect class="cls-4" x="174.45" y="156.33" width="21.23" height="24.51" rx="8.11" transform="translate(-3.88 4.36) rotate(-1.34)"/><path class="cls-4" d="M152.35,146.64a6.51,6.51,0,1,0,6.55-6.4A6.48,6.48,0,0,0,152.35,146.64Z"/><path class="cls-5" d="M162.45,146.72a3.58,3.58,0,0,0-3.57-3.6"/><path class="cls-4" d="M216.25,145.15a6.5,6.5,0,1,1-6.84-6.09A6.47,6.47,0,0,1,216.25,145.15Z"/><path class="cls-5" d="M206.17,145.7a3.58,3.58,0,0,1,3.4-3.76"/><rect class="cls-4" x="163.62" y="111.33" width="41.1" height="54.43" rx="17.68" transform="translate(-1.82 2.45) rotate(-0.76)"/><path class="cls-5" d="M190.32,150.16a5.27,5.27,0,0,1-10.46.14Z"/><path d="M173.23,138.28a2.38,2.38,0,1,1-2.34-2.43A2.38,2.38,0,0,1,173.23,138.28Z"/><path d="M198.41,137.69a2.38,2.38,0,1,1-2.33-2.43A2.37,2.37,0,0,1,198.41,137.69Z"/><path class="cls-3" d="M193.53,132.52a8.12,8.12,0,0,1,5.95,1"/><path class="cls-3" d="M173.07,133a8.07,8.07,0,0,0-5.89,1.24"/><polyline class="cls-3" points="186.39 143.69 182.07 143.79 183.91 134.35"/><path class="cls-4" d="M213,125.12A24.8,24.8,0,0,0,188,100.72l-8,.11a24.79,24.79,0,0,0-24.39,25l0,4.39,22.71-.78L184.46,119l-1.13,10.48,6.46,0,2.4-10.46,2.58,9.91h18.3Z"/><path class="cls-6" d="M206.56,103.87s6.69-17.59,22.49-19.54,28.18,14,28.18,14L249.41,112l-4.4-1.79,2.45,5.48-5.38,9.18S229.52,93.12,206.56,103.87Z"/><path class="cls-7" d="M205.47,104.17s-9.64-15.4-1.71-16.7,2.4,16.63,2.4,16.63,17-1.42,15.24,4.72C219.94,114,209.27,109.87,205.47,104.17Z"/><line class="cls-7" x1="205.47" y1="104.17" x2="192.03" y2="94.73"/></g></g></svg>